# xmcd
#
# Track frame offsets:
#	150
#	13809
#	26639
#	39944
#	52658
#	66354
#	80613
#	93516
#	107015
#	121904
#	134829
#	148967
#	162120
#	175703
#
# Disc length: 2516 seconds
#
# Revision: 5
# Processed by: cddbd v1.5.2PL0 Copyright (c) Steve Scherf et al.
# Submitted via: EasyCDDAExtractor 12.0.4.1
#
DISCID=bc09d20e
DTITLE=สุรพล สมบัติเจริญ - รำเกี้ยวสาว
DYEAR=1977
DGENRE=Country
TTITLE0=รำเกี้ยวสาว
TTITLE1=น้ำค้างเดือนหก
TTITLE2=ลูกสาวพ่อเสือ
TTITLE3=รักจริงหรือเล่น
TTITLE4=เดือนจ๋า
TTITLE5=แจ่มเหลือเกิน
TTITLE6=อีสานตื่นกรุง
TTITLE7=คนใต้ใจซื่อ
TTITLE8=น้ำตาจ่าโท
TTITLE9=กว๊านพะเยา
TTITLE10=รำวงออกพรรษา
TTITLE11=รักริงโง
TTITLE12=ป่าซาง
TTITLE13=หงส์ปีกหัก
EXTD=
EXTT0=
EXTT1=
EXTT2=
EXTT3=
EXTT4=
EXTT5=
EXTT6=
EXTT7=
EXTT8=
EXTT9=
EXTT10=
EXTT11=
EXTT12=
EXTT13=
PLAYORDER=
